<?xml version="1.0" encoding="utf-8"?>
<!-- Generator: Adobe Illustrator 25.0.1, SVG Export Plug-In . SVG Version: 6.00 Build 0)  -->
<svg version="1.1" id="Layer_1" xmlns="http://www.w3.org/2000/svg" xmlns:xlink="http://www.w3.org/1999/xlink" x="0px" y="0px"
	 viewBox="0 0 907.1 595.3" style="enable-background:new 0 0 907.1 595.3;" xml:space="preserve">
<style type="text/css">
	.st0{fill:#F47521;}
	.st1{fill:#F4944D;}
	.st2{fill:none;stroke:#F47521;stroke-miterlimit:10;}
	.st3{fill:none;stroke:#F15922;stroke-width:2.8346;stroke-miterlimit:10;}
	.st4{fill:#F4A467;}
	.st5{fill:#F7933A;}
	.st6{fill:#F47D23;}
	.st7{fill:#F26A21;}
	.st8{fill:#E99358;}
	.st9{fill:#F2A16B;}
	.st10{fill:#EAA778;}
</style>
<rect class="st0" width="907.1" height="536.3"/>
<polygon class="st1" points="907.1,532.4 376.2,225.5 718.8,225.5 718.8,211 0,211 0,595.3 907.1,595.3 "/>
<g>
	<polyline class="st2" points="385.2,226.4 358.8,226.4 256.2,226.4 	"/>
	<polyline class="st2" points="409,243.7 358.8,243.7 256.2,243.7 	"/>
	<polyline class="st2" points="438.9,261 358.8,261 256.2,261 	"/>
	<polyline class="st2" points="468.8,278.3 358.8,278.3 177.5,278.3 	"/>
	<polyline class="st2" points="511.3,295.5 358.8,295.5 49.7,295.5 	"/>
	<polyline class="st2" points="910.1,312.8 358.8,312.8 3,312.8 	"/>
	<polyline class="st2" points="910.1,330.1 358.8,330.1 3,330.1 	"/>
	<polyline class="st2" points="910.1,347.3 358.8,347.3 3,347.3 	"/>
	<polyline class="st2" points="910.1,364.6 358.8,364.6 3,364.6 	"/>
	<polyline class="st2" points="910.1,381.9 358.8,381.9 3,381.9 	"/>
	<polyline class="st2" points="910.1,399.1 358.8,399.1 3,399.1 	"/>
	<polyline class="st2" points="910.1,416.4 358.8,416.4 3,416.4 	"/>
	<polyline class="st2" points="910.1,433.7 358.8,433.7 3,433.7 	"/>
	<polyline class="st2" points="910.1,450.9 358.8,450.9 3,450.9 	"/>
	<polyline class="st2" points="910.1,468.2 358.8,468.2 3,468.2 	"/>
	<polyline class="st2" points="910.1,485.5 358.8,485.5 3,485.5 	"/>
	<polyline class="st2" points="910.1,502.7 358.8,502.7 3,502.7 	"/>
	<polyline class="st2" points="910.1,520 358.8,520 3,520 	"/>
	<polyline class="st2" points="910.1,537.3 358.8,537.3 3,537.3 	"/>
	<polyline class="st2" points="910.1,554.6 358.8,554.6 3,554.6 	"/>
	<polyline class="st2" points="910.1,571.8 358.8,571.8 3,571.8 	"/>
	<polyline class="st2" points="910.1,589.1 358.8,589.1 3,589.1 	"/>
	<polyline class="st2" points="910.1,606.4 358.8,606.4 3,606.4 	"/>
</g>
<path class="st3" d="M637.8,239.3c0,0,0-27.6,0-42.9s13.5-14.6,13.5,0c0,14.6,0,14.6,0,14.6"/>
<path class="st3" d="M658.7,240.1c0,0,0-27.6,0-42.9s13.5-14.6,13.5,0c0,14.6,0,14.6,0,14.6"/>
<polygon class="st4" points="170,324.9 196.8,317.3 216.3,331.1 241.7,302 241.7,296.9 170,319.8 "/>
<polyline class="st5" points="218.8,286.2 193.2,290.7 170,319.8 196.8,313.9 "/>
<polyline class="st6" points="196.8,313.9 216.3,325.9 241.7,296.9 218.8,286.2 "/>
<g>
	<circle class="st7" cx="175.5" cy="306.4" r="4.9"/>
	<circle class="st7" cx="162.6" cy="306.4" r="4.9"/>
	<rect x="165.8" y="303.8" class="st7" width="7.3" height="0.7"/>
	
		<rect x="156.8" y="300.4" transform="matrix(0.8163 -0.5776 0.5776 0.8163 -143.0892 151.5939)" class="st7" width="20.1" height="0.7"/>
	
		<rect x="176.9" y="300.9" transform="matrix(0.8163 -0.5776 0.5776 0.8163 -139.791 162.8418)" class="st7" width="18.6" height="0.7"/>
</g>
<rect class="st8" width="907.1" height="109.7"/>
<path class="st9" d="M0,67.6c0,0,231.9,73.2,295.8,197.9c-40.1,4.8-119.9,11.5-172.8,26.2c-172.4,48-4.9,91.3-4.9,91.3H0V67.6z"/>
<path class="st10" d="M0,332c94.8,14.8,175.5,24.3,264.5,101.7c-57.4,16-85.7,38.1-116.6,47.5c-164.9,49.8,91.4,121.5,69,114.1H0
	V345"/>
</svg>
