<?xml version="1.0" encoding="utf-8"?>
<!-- Generator: Adobe Illustrator 25.0.1, SVG Export Plug-In . SVG Version: 6.00 Build 0)  -->
<svg version="1.1" id="Layer_1" xmlns="http://www.w3.org/2000/svg" xmlns:xlink="http://www.w3.org/1999/xlink" x="0px" y="0px"
	 viewBox="0 0 573 301" style="enable-background:new 0 0 573 301;" xml:space="preserve">
<style type="text/css">
	.st0{fill:#283A90;}
</style>
<path class="st0" d="M307.6,79c-25.1,2.4-71.9,18.1-69,54.7c1.5,18.9,11.1,20.1,24.8,35.8c16.4,18.6-0.1,42-32.2,50.4
	c-44.4,11.7-30.5,40.8-8.9,48.6c23.4,8.3,92.6-7.5,104-56.7c6.4-27.9-20.4-38.1-22.5-63.5c-2.6-30.9,53.6-23.8,52.3-42.4
	C354.4,82.1,331.2,76.8,307.6,79z"/>
<g>
	<path class="st0" d="M120.3,64.3c-19.9-4.2-39.5,20.8-46.6,35.1c-7.9,15.7-5.1,31.6-3.7,48.2c1.7,19.1-2.5,43-11.5,66
		c-12.1,30.8,8.7,67.4,25.7,71.2c21.4,4.8,41-30.8,32.5-73.8c-4.6-23.2-10.6-45.9,2.1-62.8c14.1-18.9,4.4-34.7,4.2-48.7
		C122.8,89.2,135.1,67.5,120.3,64.3z"/>
	<path class="st0" d="M101.5,49.3c-9.3-7.2-8.4-26.9,0.7-32.1c6.4-3.7,15.1,0.9,19,2.9c2.6,1.4,17,9.4,15.3,19
		c-1.6,9-16,12-18.2,12.4C114.7,52.2,107.1,53.6,101.5,49.3z"/>
</g>
<path class="st0" d="M554,261.6c27.1-19.1,6.1-82.3,0.9-102.6c-20.3-80.3-44.8-85.2-55.9-86c-15-1.1-51.9,3.1-72.2,22.9
	c-26.7,26-36.9,49.1-39.7,90.4c-3.6,52.3,12.1,100.1,44.9,79.4c17.7-11.2,29.5-112.1,58.3-76.9c16,19.5,8.3,71.6,17.1,81.3
	C514.8,278.2,526.4,281.1,554,261.6z"/>
</svg>
